<svg viewBox="0 0 65 64" fill="none" xmlns="http://www.w3.org/2000/svg"><mask id="mask0_217_146" style="mask-type:alpha" maskUnits="userSpaceOnUse" x="0" y="0" width="65" height="64"><path fill-rule="evenodd" clip-rule="evenodd" d="M.2295 0h64v64h-64V0Z" fill="#fff"/></mask><g mask="url(#mask0_217_146)" fill-rule="evenodd" clip-rule="evenodd"><path d="M32.2295 63.9991c-17.6 0-32-14.4-32-32.16.16-17.6 14.4-32 32.16-31.84 17.6.16 31.84 14.4 31.84 32.32-.16 17.44-14.4 31.68-32 31.68Z" fill="#484848"/><path d="m35.2701 28.1601-.96 5.12 9.12 1.28-.64 2.4-8.96-1.28c-.64 2.08-.96 4.32-1.76 6.24-.8 2.24-1.6 4.48-2.56 6.56-1.28 2.72-3.52 4.64-6.56 5.12-1.76.32-3.68.16-5.12-.96-.48-.32-.96-.96-.96-1.44 0-.64.32-1.44.8-1.76.32-.16 1.12 0 1.6.16.48.48.96 1.12 1.28 1.76.96 1.28 2.24 1.44 3.52.48 1.44-1.28 2.24-3.04 2.72-4.8.96-3.84 1.92-7.52 2.72-11.36v-.64l-8.48-1.28.32-2.4 8.8 1.28 1.12-4.96-9.12-1.44.32-2.56 9.44 1.28c.32-.96.48-1.76.8-2.56.8-2.88 1.6-5.76 3.52-8.32 1.92-2.56 4.16-4.16 7.52-4 1.44 0 2.88.48 3.84 1.6.16.16.48.48.48.8 0 .64 0 1.44-.48 1.92-.64.48-1.44.32-2.08-.32-.48-.48-.8-.96-1.28-1.44-.96-1.28-2.4-1.44-3.52-.32-.8.8-1.6 1.92-2.08 3.04-1.12 3.36-1.92 6.88-3.04 10.4l8.8 1.28-.64 2.4-8.48-1.28Z" fill="#fff"/></g></svg>
