<svg xmlns="http://www.w3.org/2000/svg" version="1.1" xmlns:xlink="http://www.w3.org/1999/xlink" xmlns:svgjs="http://svgjs.com/svgjs" width="73" height="72"><svg width="73" height="72" viewBox="0 0 73 72" fill="none" xmlns="http://www.w3.org/2000/svg">
<path fill-rule="evenodd" clip-rule="evenodd" d="M0 66.1558V6.78882C0 5.91728 1.05373 5.48081 1.66999 6.09708L31.1578 35.5849C31.3871 35.8141 31.3871 36.1858 31.1578 36.415L1.002 66.5708C0.878403 66.6944 0.77771 66.7297 0.70169 66.7429C0.608567 66.759 0.488091 66.7502 0.362338 66.6981C0.236584 66.646 0.145149 66.567 0.0907088 66.4898C0.0462669 66.4267 0 66.3306 0 66.1558Z" fill="white"></path>
<path fill-rule="evenodd" clip-rule="evenodd" d="M71.4266 35.2764L59.3633 47.3397C59.2705 47.4325 59.2061 47.4501 59.1672 47.4569C59.1112 47.4666 59.0286 47.4625 58.9369 47.4246C58.8452 47.3866 58.7839 47.331 58.7512 47.2846C58.7284 47.2523 58.6953 47.1943 58.6953 47.063V18.704C58.6953 18.0814 58.9427 17.4842 59.383 17.0439L70.9977 5.42919C71.1213 5.3056 71.2219 5.27034 71.298 5.25717C71.3911 5.24104 71.5116 5.24987 71.6373 5.30196C71.7631 5.35405 71.8545 5.43299 71.9089 5.51024C71.9534 5.57331 71.9997 5.66945 71.9997 5.84424L71.9997 33.893C71.9997 34.4119 71.7935 34.9095 71.4266 35.2764Z" fill="white"></path>
<path fill-rule="evenodd" clip-rule="evenodd" d="M47.0632 58.6957H18.7042C18.0815 58.6957 17.4843 58.943 17.044 59.3833L5.42932 70.998C5.30572 71.1216 5.27046 71.2223 5.25729 71.2983C5.24116 71.3914 5.24999 71.5119 5.30208 71.6377C5.35417 71.7634 5.43311 71.8549 5.51037 71.9093C5.57343 71.9537 5.66957 72 5.84436 72H33.731C34.3537 72 34.9509 71.7527 35.3912 71.3124L47.3399 59.3637C47.4326 59.2709 47.4503 59.2065 47.457 59.1676C47.4667 59.1115 47.4627 59.0289 47.4247 58.9372C47.3867 58.8455 47.3312 58.7843 47.2847 58.7515C47.2524 58.7288 47.1944 58.6957 47.0632 58.6957Z" fill="white"></path>
<path fill-rule="evenodd" clip-rule="evenodd" d="M6.78881 0L66.1558 2.62729e-06C66.3306 2.63493e-06 66.4267 0.0462695 66.4898 0.0907118C66.567 0.145153 66.646 0.236588 66.6981 0.362341C66.7502 0.488095 66.759 0.60857 66.7429 0.701692C66.7297 0.777712 66.6944 0.878404 66.5708 1.002L36.415 31.1578C36.1858 31.3871 35.8141 31.3871 35.5849 31.1578L6.09708 1.67C5.48081 1.05373 5.91728 0 6.78881 0Z" fill="white"></path>
<path fill-rule="evenodd" clip-rule="evenodd" d="M72.0015 44.5022V70.0434C72.0015 71.124 71.1256 71.9999 70.045 71.9999H44.5038C44.3726 71.9999 44.3146 71.9668 44.2823 71.9441C44.2358 71.9113 44.1802 71.8501 44.1423 71.7584C44.1043 71.6667 44.1002 71.5841 44.11 71.5281C44.1167 71.4891 44.1343 71.4247 44.2271 71.3319L71.3335 44.2255C71.4263 44.1327 71.4907 44.1151 71.5297 44.1084C71.5857 44.0987 71.6683 44.1027 71.76 44.1407C71.8517 44.1787 71.9129 44.2342 71.9457 44.2807C71.9684 44.313 72.0015 44.371 72.0015 44.5022Z" fill="white"></path>
<path fill-rule="evenodd" clip-rule="evenodd" d="M51.8492 52.4348H25.4108C25.236 52.4348 25.1398 52.3886 25.0768 52.3441C24.9995 52.2897 24.9206 52.1982 24.8685 52.0725C24.8164 51.9467 24.8076 51.8263 24.8237 51.7331C24.8369 51.6571 24.8721 51.5564 24.9957 51.4328L51.4342 24.9944C51.5578 24.8708 51.6585 24.8355 51.7345 24.8224C51.8276 24.8062 51.9481 24.8151 52.0738 24.8671C52.1996 24.9192 52.291 24.9982 52.3455 25.0754C52.3899 25.1385 52.4362 25.2346 52.4362 25.4094L52.4362 51.8479C52.4362 52.172 52.1734 52.4348 51.8492 52.4348Z" fill="white"></path>
</svg><style>@media (prefers-color-scheme: light) { :root { filter: contrast(1) brightness(0.1); } }
@media (prefers-color-scheme: dark) { :root { filter: none; } }
</style></svg>