<?xml version="1.0" standalone="no"?>
<!DOCTYPE svg PUBLIC "-//W3C//DTD SVG 20010904//EN"
 "http://www.w3.org/TR/2001/REC-SVG-20010904/DTD/svg10.dtd">
<svg version="1.0" xmlns="http://www.w3.org/2000/svg"
 width="368.000000pt" height="368.000000pt" viewBox="0 0 368.000000 368.000000"
 preserveAspectRatio="xMidYMid meet">
<metadata>
Created by potrace 1.14, written by Peter Selinger 2001-2017
</metadata>
<g transform="translate(0.000000,368.000000) scale(0.100000,-0.100000)"
fill="#000000" stroke="none">
<path d="M318 3669 c-52 -30 -55 -27 745 -827 419 -419 769 -762 777 -762 8 0
365 350 794 779 573 573 777 783 774 797 -3 19 -42 19 -1538 21 -1030 2 -1541
-1 -1552 -8z"/>
<path d="M3329 3103 c-169 -170 -312 -318 -318 -330 -8 -15 -11 -243 -11 -767
0 -707 1 -746 18 -746 24 0 649 628 657 660 3 14 4 354 3 755 -3 721 -3 730
-23 733 -15 2 -102 -80 -326 -305z"/>
<path d="M10 3361 c-7 -14 -9 -507 -8 -1553 3 -1496 3 -1533 22 -1536 14 -3
223 200 797 774 429 429 779 786 779 794 0 8 -343 358 -762 777 -804 804 -798
799 -828 744z"/>
<path d="M1951 1727 c-503 -504 -682 -689 -679 -703 3 -18 25 -19 683 -22 374
-1 690 0 703 3 l22 5 -2 698 c-3 688 -3 697 -23 700 -15 2 -198 -175 -704
-681z"/>
<path d="M2949 723 c-388 -388 -695 -704 -692 -710 4 -10 148 -13 675 -13 607
0 673 2 698 17 16 9 33 27 39 40 8 16 11 233 11 693 0 632 -1 670 -18 670 -9
0 -321 -304 -713 -697z"/>
<path d="M905 666 c-16 -8 -167 -151 -334 -319 -220 -221 -302 -309 -299 -323
3 -18 26 -19 733 -22 402 -1 741 0 755 3 33 8 670 643 663 661 -8 21 -1474 20
-1518 0z"/>
</g>
</svg>
