<?xml version="1.0" standalone="no"?>
<!DOCTYPE svg PUBLIC "-//W3C//DTD SVG 20010904//EN"
 "http://www.w3.org/TR/2001/REC-SVG-20010904/DTD/svg10.dtd">
<svg version="1.0" xmlns="http://www.w3.org/2000/svg"
 width="700.000000pt" height="700.000000pt" viewBox="0 0 700.000000 700.000000"
 preserveAspectRatio="xMidYMid meet">
<metadata>
Created by potrace 1.14, written by Peter Selinger 2001-2017
</metadata>
<g transform="translate(0.000000,700.000000) scale(0.100000,-0.100000)"
fill="#000000" stroke="none">
<path d="M915 6983 c-16 -8 -38 -24 -48 -34 -39 -41 -51 -124 -24 -175 22 -41
2560 -2576 2594 -2591 15 -7 44 -12 63 -12 19 0 48 5 63 12 34 15 2572 2551
2594 2592 37 70 6 163 -67 202 l-43 23 -2551 0 c-2310 -1 -2554 -2 -2581 -17z"/>
<path d="M124 6170 c-36 -8 -72 -33 -100 -69 -19 -26 -19 -68 -22 -2581 -2
-2279 -1 -2559 13 -2596 32 -84 134 -122 214 -79 39 20 2574 2560 2588 2592 7
15 12 44 12 63 0 19 -5 48 -12 63 -14 33 -2549 2572 -2588 2592 -35 19 -68 23
-105 15z"/>
<path d="M6795 6164 c-53 -18 -910 -872 -928 -925 -9 -27 -12 -308 -12 -1165
1 -1045 2 -1132 18 -1164 34 -70 122 -103 197 -73 46 18 895 864 916 912 12
28 14 202 14 1162 0 1260 4 1184 -69 1232 -48 32 -87 38 -136 21z"/>
<path d="M4790 4164 c-39 -16 -582 -551 -606 -596 -18 -34 -18 -105 0 -137 8
-14 137 -148 287 -299 287 -287 326 -318 390 -307 58 10 101 41 127 90 13 26
15 103 16 564 1 360 -3 549 -10 578 -24 93 -119 143 -204 107z"/>
<path d="M3435 2816 c-16 -8 -290 -274 -607 -592 -508 -510 -577 -583 -583
-616 -17 -94 -41 -65 573 -681 312 -313 579 -577 594 -588 35 -26 62 -31 118
-24 44 6 60 21 623 583 318 317 583 588 590 602 17 34 19 99 4 133 -17 40
-1145 1166 -1184 1183 -40 17 -89 17 -128 0z"/>
<path d="M6805 2312 c-11 -2 -32 -13 -47 -23 -34 -25 -2012 -2002 -2044 -2044
-49 -64 -31 -167 37 -216 l34 -24 1035 -3 c796 -2 1044 0 1073 9 51 17 94 67
102 121 3 24 5 502 3 1063 l-3 1020 -23 33 c-36 49 -110 78 -167 64z"/>
<path d="M1505 889 c-33 -18 -645 -632 -662 -664 -32 -60 -6 -157 54 -200 27
-20 44 -20 673 -20 l645 0 31 23 c16 13 39 37 49 54 22 38 23 119 2 151 -24
38 -617 627 -651 648 -34 21 -109 25 -141 8z"/>
</g>
</svg>
