<svg width="107" height="107" viewBox="0 0 107 107" fill="none" xmlns="http://www.w3.org/2000/svg">
<path d="M66.9046 106.75C62.6728 106.75 60.5535 101.633 63.5459 98.6412L98.6413 63.5468C101.634 60.5545 106.75 62.6738 106.75 66.9055V102C106.75 104.623 104.623 106.75 102 106.75H66.9046Z" fill="black" stroke="black" stroke-width="0.5"/>
<path d="M23.3915 85.2978C25.2465 83.443 28.2539 83.443 30.1088 85.2979L43.4526 98.641C46.4451 101.633 44.3258 106.75 40.094 106.75H13.4055C9.17362 106.75 7.05439 101.633 10.047 98.6409L23.3915 85.2978Z" fill="black" stroke="black" stroke-width="0.5"/>
<path d="M48.4529 50.1412C50.3079 51.9962 50.3079 55.0037 48.4529 56.8587L8.35876 96.9529C5.36642 99.9452 0.25 97.826 0.25 93.5942V13.4058C0.25 9.17399 5.36644 7.0547 8.35877 10.047L48.4529 50.1412Z" fill="black" stroke="black" stroke-width="0.5"/>
<path d="M31.7948 76.8976L50.1393 58.5531C51.9942 56.6981 55.0018 56.6981 56.8567 58.5531L75.2002 76.8966C77.0552 78.7516 77.0552 81.7591 75.2002 83.614L56.8558 101.959C55.0008 103.814 51.9933 103.814 50.1383 101.959L31.7948 83.615C29.9398 81.76 29.9398 78.7525 31.7948 76.8976Z" fill="black" stroke="black" stroke-width="0.5"/>
<path d="M98.6411 10.0483C101.633 7.05592 106.75 9.17521 106.75 13.407V50.0941C106.75 51.3539 106.249 52.562 105.359 53.4528L89.551 69.2605C86.5587 72.2528 81.4423 70.1335 81.4423 65.9017V29.2146C81.4423 27.9548 81.9427 26.7466 82.8335 25.8559L98.6411 10.0483Z" fill="black" stroke="black" stroke-width="0.5"/>
<path d="M79.3049 41.1002C79.3049 36.6457 73.9193 34.4149 70.7694 37.5646L58.369 49.9642C56.4163 51.9168 56.4163 55.0827 58.3689 57.0354L70.7693 69.4358C73.9192 72.5856 79.3049 70.3548 79.3049 65.9003V41.1002Z" fill="black"/>
<path d="M79.3049 41.1002C79.3049 36.6457 73.9193 34.4149 70.7694 37.5646L58.369 49.9642C56.4163 51.9168 56.4163 55.0827 58.3689 57.0354L70.7693 69.4358C73.9192 72.5856 79.3049 70.3548 79.3049 65.9003V41.1002Z" stroke="black"/>
<path d="M10.0461 8.3588C7.05374 5.36649 9.17302 0.25 13.4048 0.25H93.5955C97.8274 0.25 99.9466 5.36649 96.9542 8.35881L56.8589 48.4531C55.0039 50.308 51.9965 50.308 50.1415 48.4531L10.0461 8.3588Z" fill="black" stroke="black" stroke-width="0.5"/>
</svg>
